<svg width="48" height="48" viewBox="0 0 48 48" fill="none" xmlns="http://www.w3.org/2000/svg">
<path d="M24 13.5C24 13.1022 23.842 12.7206 23.5607 12.4393C23.2794 12.158 22.8978 12 22.5 12C22.1022 12 21.7206 12.158 21.4393 12.4393C21.158 12.7206 21 13.1022 21 13.5V34.5C21 34.8978 21.158 35.2794 21.4393 35.5607C21.7206 35.842 22.1022 36 22.5 36C22.8978 36 23.2794 35.842 23.5607 35.5607C23.842 35.2794 24 34.8978 24 34.5V13.5ZM7.5 15C7.10218 15 6.72064 15.158 6.43934 15.4393C6.15804 15.7206 6 16.1022 6 16.5C6 16.8978 6.15804 17.2794 6.43934 17.5607C6.72064 17.842 7.10218 18 7.5 18H16.5C16.8978 18 17.2794 17.842 17.5607 17.5607C17.842 17.2794 18 16.8978 18 16.5C18 16.1022 17.842 15.7206 17.5607 15.4393C17.2794 15.158 16.8978 15 16.5 15H7.5ZM7.5 21C7.10218 21 6.72064 21.158 6.43934 21.4393C6.15804 21.7206 6 22.1022 6 22.5C6 22.8978 6.15804 23.2794 6.43934 23.5607C6.72064 23.842 7.10218 24 7.5 24H16.5C16.8978 24 17.2794 23.842 17.5607 23.5607C17.842 23.2794 18 22.8978 18 22.5C18 22.1022 17.842 21.7206 17.5607 21.4393C17.2794 21.158 16.8978 21 16.5 21H7.5ZM7.5 27C7.10218 27 6.72064 27.158 6.43934 27.4393C6.15804 27.7206 6 28.1022 6 28.5C6 28.8978 6.15804 29.2794 6.43934 29.5607C6.72064 29.842 7.10218 30 7.5 30H16.5C16.8978 30 17.2794 29.842 17.5607 29.5607C17.842 29.2794 18 28.8978 18 28.5C18 28.1022 17.842 27.7206 17.5607 27.4393C17.2794 27.158 16.8978 27 16.5 27H7.5Z" fill="#C5528B"/>
<path fill-rule="evenodd" clip-rule="evenodd" d="M0 12C0 10.4087 0.632141 8.88258 1.75736 7.75736C2.88258 6.63214 4.4087 6 6 6H42C43.5913 6 45.1174 6.63214 46.2426 7.75736C47.3679 8.88258 48 10.4087 48 12V36C48 37.5913 47.3679 39.1174 46.2426 40.2426C45.1174 41.3679 43.5913 42 42 42H6C4.4087 42 2.88258 41.3679 1.75736 40.2426C0.632141 39.1174 0 37.5913 0 36V12ZM6 9C5.20435 9 4.44129 9.31607 3.87868 9.87868C3.31607 10.4413 3 11.2044 3 12V36C3 36.7956 3.31607 37.5587 3.87868 38.1213C4.44129 38.6839 5.20435 39 6 39H42C42.7957 39 43.5587 38.6839 44.1213 38.1213C44.6839 37.5587 45 36.7956 45 36V12C45 11.2044 44.6839 10.4413 44.1213 9.87868C43.5587 9.31607 42.7957 9 42 9H6Z" fill="#C5528B"/>
<path d="M39.7868 20.5867C39.1075 20.2297 38.3153 20.1531 37.5802 20.3734C37.5444 19.6257 37.2222 18.9205 36.6803 18.404C36.1385 17.8875 35.4187 17.5994 34.6702 17.5994C33.9216 17.5994 33.2018 17.8875 32.66 18.404C32.1182 18.9205 31.796 19.6257 31.7602 20.3734C31.027 20.1526 30.2371 20.2218 29.5535 20.5667C29.0501 20.8313 28.6351 21.2374 28.3598 21.735C28.0845 22.2327 27.9608 22.8 28.004 23.367C28.0473 23.9341 28.2555 24.4761 28.6031 24.9262C28.9507 25.3763 29.4225 25.7148 29.9602 25.9C29.617 26.3884 29.4309 26.9698 29.4268 27.5667C29.4298 27.7343 29.4454 27.9015 29.4735 28.0667C29.5858 28.7437 29.935 29.3588 30.4589 29.8021C30.9828 30.2454 31.6472 30.488 32.3335 30.4867C32.4756 30.4964 32.6181 30.4964 32.7602 30.4867C33.5222 30.3667 34.2068 29.9526 34.6668 29.3334C35.1317 29.9426 35.8156 30.3467 36.5735 30.46C36.7156 30.4698 36.8581 30.4698 37.0002 30.46C37.5323 30.4594 38.054 30.3128 38.5085 30.036C38.9629 29.7593 39.3327 29.3631 39.5776 28.8907C39.8224 28.4183 39.9328 27.8877 39.8968 27.3568C39.8608 26.8259 39.6798 26.3151 39.3735 25.88C39.9138 25.698 40.3887 25.3611 40.739 24.9113C41.0893 24.4614 41.2996 23.9185 41.3436 23.35C41.3877 22.7816 41.2636 22.2127 40.9868 21.7143C40.71 21.2158 40.2927 20.8098 39.7868 20.5467V20.5867ZM33.5602 19.2934C33.858 19.0081 34.2545 18.8489 34.6668 18.8489C35.0792 18.8489 35.4757 19.0081 35.7735 19.2934C36.0009 19.5211 36.1553 19.8114 36.217 20.1272C36.2788 20.4431 36.2451 20.7701 36.1202 21.0667L35.9468 21.46L35.5068 21.8467C35.2363 21.7539 34.9528 21.7044 34.6668 21.7C34.2972 21.7004 33.9317 21.7776 33.5935 21.9267L33.2202 21.0667C33.0908 20.7714 33.054 20.4438 33.1147 20.1272C33.1754 19.8106 33.3307 19.5199 33.5602 19.2934ZM29.4935 23.8534C29.3447 23.5259 29.3121 23.1574 29.401 22.8089C29.49 22.4603 29.6953 22.1526 29.9828 21.9365C30.2704 21.7204 30.6231 21.6089 30.9827 21.6205C31.3422 21.632 31.687 21.7659 31.9602 22L32.2868 22.2867L32.5202 22.82C32.1862 23.2669 32.004 23.8089 32.0002 24.3667C31.9923 24.4666 31.9923 24.5669 32.0002 24.6667H31.6335L31.0735 24.72C30.7532 24.7538 30.4302 24.6889 30.1478 24.534C29.8654 24.3792 29.6371 24.1417 29.4935 23.8534ZM33.8935 27.9067C33.8132 28.2626 33.6128 28.58 33.3259 28.8053C33.039 29.0307 32.6832 29.1504 32.3185 29.1441C31.9537 29.1378 31.6022 29.0061 31.3232 28.771C31.0443 28.5359 30.8548 28.2118 30.7868 27.8534C30.7804 27.7602 30.7804 27.6666 30.7868 27.5734C30.7893 27.3024 30.8625 27.0368 30.9993 26.8029C31.1362 26.569 31.3318 26.3749 31.5668 26.24L31.9068 26L32.5135 25.9334C32.8959 26.4653 33.4607 26.8379 34.1002 26.98L33.8935 27.9067ZM34.6668 25.7C34.4031 25.7 34.1453 25.6218 33.9261 25.4753C33.7068 25.3288 33.5359 25.1206 33.435 24.877C33.3341 24.6333 33.3077 24.3652 33.3591 24.1066C33.4106 23.8479 33.5376 23.6104 33.724 23.4239C33.9105 23.2374 34.1481 23.1104 34.4067 23.059C34.6654 23.0075 34.9334 23.034 35.1771 23.1349C35.4207 23.2358 35.629 23.4067 35.7755 23.6259C35.922 23.8452 36.0002 24.103 36.0002 24.3667C36.0002 24.7203 35.8597 25.0595 35.6096 25.3095C35.3596 25.5596 35.0205 25.7 34.6668 25.7ZM38.5468 27.8467C38.4781 28.2535 38.2523 28.617 37.9181 28.8589C37.5839 29.1008 37.1681 29.2018 36.7602 29.14C36.4388 29.0947 36.1388 28.9524 35.9006 28.732C35.6623 28.5116 35.497 28.2236 35.4268 27.9067L35.3335 27.5067L35.4735 26.8934C36.0885 26.6931 36.6098 26.2761 36.9402 25.72L37.2735 25.92H37.3335L37.7735 26.18C38.0594 26.3433 38.2874 26.5914 38.426 26.89C38.5645 27.1887 38.6068 27.523 38.5468 27.8467ZM39.8402 23.8467C39.709 24.1117 39.5068 24.335 39.256 24.4916C39.0052 24.6482 38.7158 24.7319 38.4202 24.7334H38.2602L37.8335 24.6667L37.3335 24.3934C37.3326 23.7452 37.0956 23.1195 36.6668 22.6334L36.9535 22.3867L37.3735 22C37.6474 21.7565 37.9974 21.6158 38.3637 21.602C38.7299 21.5882 39.0896 21.7021 39.381 21.9242C39.6725 22.1464 39.8777 22.463 39.9615 22.8198C40.0452 23.1766 40.0023 23.5514 39.8402 23.88V23.8467Z" fill="#C5528B"/>
</svg>
