<?xml version="1.0" standalone="no"?>
<!DOCTYPE svg PUBLIC "-//W3C//DTD SVG 20010904//EN"
 "http://www.w3.org/TR/2001/REC-SVG-20010904/DTD/svg10.dtd">
<svg version="1.0" xmlns="http://www.w3.org/2000/svg"
 width="760.000000pt" height="760.000000pt" viewBox="0 0 760.000000 760.000000"
 preserveAspectRatio="xMidYMid meet">
<metadata>
Created by potrace 1.14, written by Peter Selinger 2001-2017
</metadata>
<g transform="translate(0.000000,760.000000) scale(0.100000,-0.100000)"
fill="#000000" stroke="none">
<path d="M3191 7495 c-21 -19 -41 -35 -44 -35 -10 0 -172 -106 -189 -124 -9
-9 -21 -16 -27 -16 -6 0 -11 -4 -11 -9 0 -4 -9 -8 -19 -7 -11 0 -54 -12 -96
-29 -74 -29 -79 -33 -126 -102 -27 -40 -49 -75 -48 -78 2 -16 -14 -65 -26 -75
-17 -14 -57 -90 -47 -90 4 0 2 -4 -4 -8 -16 -10 -84 -139 -77 -146 4 -3 1 -6
-4 -6 -6 0 -10 -8 -8 -17 1 -10 0 -22 -4 -28 -3 -5 -6 -16 -8 -24 -9 -61 -12
-64 -56 -56 -51 10 -261 9 -337 -1 -30 -4 -58 -7 -62 -6 -5 1 -8 -2 -8 -7 0
-5 -12 -12 -27 -16 -15 -3 -30 -10 -33 -14 -3 -4 -49 -29 -102 -56 -111 -57
-247 -163 -274 -215 -10 -19 -23 -38 -27 -41 -5 -3 -8 -9 -8 -13 0 -6 -5 -25
-16 -53 -3 -10 -5 -21 -5 -25 1 -5 -2 -8 -6 -8 -5 0 -9 -6 -9 -12 0 -7 -10
-33 -21 -57 -12 -25 -22 -51 -22 -58 0 -7 -4 -13 -9 -13 -8 0 -30 -46 -36 -75
-1 -5 -3 -13 -5 -17 -1 -5 -3 -11 -4 -15 -2 -5 -8 -28 -16 -53 -34 -115 -44
-246 -25 -350 4 -25 8 -51 8 -57 0 -7 4 -13 7 -13 9 0 22 -68 26 -140 4 -67 6
-74 30 -126 11 -24 20 -62 19 -88 0 -25 2 -46 5 -46 3 0 5 -12 4 -27 -2 -46
55 -165 100 -208 23 -22 41 -46 41 -54 0 -19 -37 -27 -110 -25 -33 1 -85 -2
-115 -7 -30 -6 -73 -12 -94 -15 -22 -3 -48 -10 -58 -15 -12 -7 -18 -6 -18 1 0
15 -61 -19 -80 -45 -8 -11 -16 -33 -17 -48 -4 -37 -20 -52 -65 -60 -39 -6 -60
-21 -153 -112 -58 -56 -135 -167 -135 -194 0 -7 -7 -22 -15 -35 -8 -12 -16
-34 -17 -48 -1 -15 -6 -25 -10 -22 -4 3 -10 -12 -14 -33 -4 -21 -10 -42 -14
-48 -4 -5 -11 -26 -16 -45 -10 -46 -13 -53 -34 -105 -18 -43 -23 -61 -25 -95
-2 -19 0 -39 3 -45 3 -5 7 -16 8 -25 1 -8 6 -42 12 -75 13 -70 12 -83 -10
-117 -39 -59 -70 -153 -69 -208 0 -54 -16 -110 -32 -110 -5 0 -5 -4 -2 -10 3
-5 2 -10 -4 -10 -6 0 -13 -17 -18 -37 -4 -21 -8 -41 -9 -45 -1 -5 -2 -14 -3
-22 -1 -16 -68 -86 -82 -86 -5 0 -9 -4 -9 -10 0 -5 -18 -27 -40 -47 -22 -21
-40 -44 -40 -50 0 -7 -4 -13 -8 -13 -8 0 -30 -46 -67 -135 -13 -32 -59 -219
-72 -295 -11 -68 -8 -214 6 -247 6 -16 13 -39 14 -51 1 -12 4 -22 7 -22 3 0
12 -21 19 -46 8 -25 22 -63 32 -85 11 -21 19 -45 19 -54 0 -8 5 -15 10 -15 6
0 10 -6 10 -13 0 -7 16 -30 35 -52 19 -22 35 -43 35 -46 0 -3 12 -19 26 -35
14 -16 82 -104 150 -195 84 -112 137 -173 162 -187 20 -11 64 -47 97 -79 80
-76 111 -102 100 -83 -5 9 0 8 13 -4 12 -11 22 -16 22 -12 0 9 101 -47 148
-81 24 -18 30 -28 24 -41 -9 -19 -7 -101 3 -147 12 -59 37 -125 47 -125 5 0 6
-5 3 -10 -3 -6 -3 -10 2 -10 9 0 39 -61 35 -73 -1 -5 2 -6 8 -2 5 3 10 0 10
-8 0 -15 44 -57 61 -57 5 0 8 -4 5 -8 -2 -4 18 -20 45 -35 27 -16 49 -33 49
-38 0 -6 4 -7 10 -4 5 3 10 1 10 -6 0 -7 3 -9 7 -6 3 4 13 1 22 -7 9 -8 34
-16 56 -19 54 -8 68 -11 83 -21 7 -4 36 -10 65 -13 29 -3 72 -14 96 -24 47
-20 72 -27 136 -35 22 -3 65 -12 95 -20 30 -9 66 -18 80 -21 14 -2 32 -7 40
-10 8 -4 17 -7 20 -8 40 -11 50 -19 50 -42 0 -25 1 -25 58 -19 85 9 126 17
140 29 6 5 12 7 12 4 0 -3 21 2 48 12 26 9 65 16 87 14 53 -4 151 -3 195 2 19
3 62 7 94 10 33 2 63 10 68 17 4 7 8 10 8 5 0 -14 124 55 144 81 27 34 57 82
51 82 -3 0 1 17 9 38 15 40 30 97 24 97 -1 0 5 11 15 25 9 13 17 31 17 39 0
18 64 78 92 87 10 3 18 10 18 15 0 5 6 9 13 9 25 1 130 114 126 136 0 4 4 10
10 14 6 3 13 17 16 29 7 37 36 76 45 61 4 -6 11 -11 16 -11 10 1 13 -19 5 -34
-3 -5 -6 -34 -7 -64 -2 -44 1 -58 16 -68 21 -15 18 -31 -11 -74 -19 -27 -16
-39 8 -39 7 0 32 -12 54 -26 35 -22 40 -30 38 -57 -3 -53 0 -65 21 -72 12 -4
32 -24 46 -45 27 -40 67 -65 119 -74 17 -2 30 -5 30 -6 0 -1 14 -3 32 -3 17
-1 34 -5 38 -9 4 -4 13 -4 21 -1 8 3 14 0 14 -7 0 -39 31 33 46 109 6 33 26
67 44 79 11 7 20 8 20 3 0 -5 8 -11 18 -14 9 -2 24 -8 33 -11 9 -4 23 -1 31 8
19 19 87 29 103 16 8 -6 12 -24 10 -41 -2 -16 -1 -29 3 -29 4 0 7 -12 8 -27 1
-16 6 -59 11 -98 10 -69 17 -85 87 -199 19 -32 33 -63 29 -69 -4 -6 4 -7 21
-3 14 3 32 2 39 -4 6 -6 21 -18 33 -28 12 -9 25 -28 29 -41 6 -21 9 -22 17 -8
5 9 8 18 7 19 -5 7 23 48 32 48 6 0 31 9 56 21 25 11 58 23 72 26 14 2 27 6
29 8 2 2 16 -1 32 -5 22 -6 32 -4 46 11 33 36 115 7 128 -45 5 -22 36 -29 52
-13 16 15 48 5 74 -23 25 -27 31 -29 49 -18 11 6 22 22 25 34 9 33 84 61 117
43 11 -6 20 -5 24 1 4 6 46 9 110 6 84 -3 114 -9 159 -29 58 -27 58 -27 124
-8 44 12 141 66 154 85 5 7 8 7 9 1 0 -5 6 3 13 19 14 31 5 104 -20 164 -12
29 -11 35 5 51 10 10 45 26 77 36 42 13 68 29 92 56 30 33 36 36 68 29 19 -4
34 -6 34 -3 0 2 16 -5 35 -17 19 -12 48 -23 63 -25 16 -2 48 -21 71 -43 38
-35 71 -50 71 -31 0 4 14 10 30 14 17 4 30 13 30 21 0 8 4 13 9 12 5 -2 9 1 9
6 1 6 20 16 43 22 35 11 49 10 87 -2 42 -15 45 -15 68 7 13 12 24 28 24 35 0
29 32 31 76 7 24 -14 44 -20 44 -14 0 6 6 8 14 5 8 -3 23 7 35 23 11 15 26 34
32 41 6 8 12 28 14 45 3 52 13 66 43 61 64 -10 67 -9 70 11 3 24 -8 42 -27 47
-45 11 -117 127 -90 144 5 3 7 9 4 14 -3 4 8 16 23 26 35 23 52 40 52 53 0 6
7 11 15 11 8 0 15 6 15 13 0 7 3 8 8 2 11 -15 63 -38 93 -41 14 -1 37 -9 51
-18 18 -12 25 -13 26 -4 1 7 4 38 8 68 8 63 8 142 1 214 -2 27 -2 57 0 66 5
20 40 33 49 19 3 -5 15 -4 27 3 12 6 36 12 54 14 17 1 37 5 45 10 7 5 24 9 36
10 36 2 47 26 42 96 -3 46 9 68 36 68 23 0 25 3 19 38 -11 73 -15 85 -40 122
-14 20 -25 39 -25 43 0 4 -11 25 -24 46 -14 21 -22 42 -19 45 4 3 1 6 -5 6
-16 0 -15 35 2 49 16 13 30 9 117 -34 47 -24 66 -29 66 -19 0 8 -4 14 -9 14
-4 0 -7 3 -6 8 1 4 -12 37 -30 75 -18 37 -32 74 -32 82 0 8 -4 15 -10 15 -9 0
-5 48 7 80 12 31 0 55 -57 109 -58 57 -69 74 -75 123 -2 15 -19 42 -37 60 -18
18 -45 49 -60 70 -33 43 -44 54 -98 93 -22 16 -52 48 -65 71 -19 32 -39 49
-79 68 -30 14 -59 26 -63 26 -9 0 -43 36 -43 45 0 3 -9 14 -20 25 -22 22 -27
56 -7 57 6 0 17 2 22 3 14 4 88 -11 100 -20 6 -5 24 -10 42 -13 17 -3 36 -8
41 -11 6 -3 29 -7 52 -8 22 -1 43 -5 46 -10 3 -4 16 -8 30 -8 13 0 24 -4 24
-9 0 -8 38 -20 80 -26 8 -1 35 -8 60 -15 101 -29 115 -15 55 52 -29 32 -34 42
-25 58 6 11 14 19 18 17 13 -4 53 31 56 49 3 21 -30 56 -77 80 -17 9 -37 23
-45 30 -7 8 -17 14 -22 14 -5 0 -15 6 -22 13 -20 19 -115 58 -153 61 -18 2
-37 6 -42 9 -6 4 -27 7 -49 9 -66 4 -79 36 -34 88 20 23 20 23 -6 47 -28 26
-29 22 21 81 25 30 65 51 84 44 10 -3 12 0 8 11 -8 22 22 55 54 61 15 2 41 12
59 21 17 9 46 16 63 15 68 -4 77 -1 77 24 0 21 -23 42 -42 38 -5 -1 -8 2 -8 7
0 5 -21 14 -47 21 -26 6 -50 16 -54 21 -7 12 -44 13 -134 4 -113 -11 -128 -11
-132 2 -3 7 5 20 17 30 64 53 62 51 50 72 -13 26 -35 37 -84 45 -47 8 -56 13
-56 32 0 8 -5 14 -11 14 -5 0 -7 5 -4 10 3 6 1 10 -6 10 -7 0 -10 3 -6 6 3 3
-3 21 -14 40 -36 64 -14 117 53 131 16 3 28 10 28 14 0 5 11 14 25 19 14 5 25
14 25 20 0 5 11 12 25 16 14 3 25 10 25 15 0 5 7 9 16 9 8 0 13 4 9 9 -3 5 3
12 12 15 28 9 156 146 183 196 13 25 30 51 38 59 45 46 68 102 76 192 6 56 9
73 17 79 7 6 69 126 70 137 1 5 5 19 10 32 13 34 13 165 0 190 -7 12 -14 43
-17 69 -5 52 -11 89 -17 112 -16 62 -21 76 -27 85 -9 12 -20 59 -26 105 -3 19
-13 58 -24 85 -10 28 -24 64 -30 81 -20 54 -72 101 -160 144 -66 33 -96 42
-135 41 -63 0 -69 -2 -135 -33 -62 -30 -82 -35 -161 -42 -31 -3 -67 -9 -80
-15 -83 -33 -96 -33 -119 0 -11 15 -20 32 -20 38 0 6 -4 11 -10 11 -5 0 -10 4
-10 9 0 19 -46 59 -100 87 -30 16 -57 31 -60 34 -22 22 -96 49 -150 55 -107
11 -121 12 -125 5 -2 -3 -21 -5 -42 -4 -21 0 -57 -4 -80 -11 -23 -7 -44 -10
-47 -7 -4 3 -6 1 -6 -5 0 -5 -6 -10 -12 -10 -7 0 -45 -10 -85 -21 -56 -16 -74
-18 -82 -8 -13 16 -7 112 10 151 14 34 18 105 6 105 -5 0 -5 5 -1 11 13 21 5
140 -14 204 -18 61 -27 71 -43 48 -19 -26 -69 -50 -96 -45 -14 2 -26 15 -33
37 -14 41 -48 87 -60 80 -12 -7 -44 41 -36 54 4 5 2 12 -3 15 -5 3 -7 14 -4
24 6 24 -31 103 -60 130 -28 25 -113 73 -119 66 -3 -2 -18 12 -34 33 -15 21
-32 40 -36 41 -4 2 -8 9 -8 15 -1 21 -114 124 -160 145 -45 21 -155 59 -187
66 -10 1 -25 6 -33 9 -17 6 -68 16 -119 23 -19 2 -50 8 -70 12 -30 7 -80 7
-146 1 -27 -3 -71 12 -83 28 -16 23 -69 85 -84 98 -6 6 -32 30 -57 55 -83 79
-101 83 -275 56 -12 -1 -96 -80 -96 -89 0 -4 -8 -15 -17 -25 -10 -10 -24 -28
-31 -39 -8 -11 -23 -19 -33 -18 -27 2 -76 72 -102 147 -17 46 -28 63 -43 64
-10 1 -23 3 -29 4 -18 3 -170 1 -190 -3 -11 -2 -30 0 -43 4 -18 7 -30 2 -61
-26z"/>
<path d="M3375 97 c-22 -12 -55 -49 -50 -57 4 -7 193 -5 201 2 11 12 -19 44
-52 54 -19 6 -34 7 -34 3 0 -5 -10 -5 -23 0 -14 6 -30 5 -42 -2z"/>
<path d="M3226 38 c3 -4 9 -8 15 -8 5 0 9 4 9 8 0 5 -7 9 -15 9 -8 0 -12 -4
-9 -9z"/>
</g>
</svg>
