<svg width="13" height="10" viewBox="0 0 13 10" fill="none" xmlns="http://www.w3.org/2000/svg">
<path d="M4.53756 9.91722L0.0810966 5.36761C0.0553954 5.34137 0.0349997 5.31018 0.0210822 5.27582C0.00716471 5.24146 0 5.20461 0 5.1674C0 5.13019 0.00716471 5.09335 0.0210822 5.05899C0.0349997 5.02463 0.0553954 4.99343 0.0810966 4.96719L1.20615 3.81086C1.31366 3.70049 1.48741 3.70049 1.59492 3.81086L4.52881 6.80501C4.63632 6.91538 4.81132 6.91409 4.91883 6.80372L11.4016 0.0839022C11.5091 -0.0277526 11.6842 -0.0277526 11.7929 0.0826188L12.9192 1.23895C13.0267 1.34932 13.0267 1.52771 12.9205 1.63809L5.85762 8.95468L5.85887 8.95596L4.92758 9.91722C4.82007 10.0276 4.64507 10.0276 4.53756 9.91722Z" fill="white"/>
</svg>
