<svg width="42" height="42" viewBox="0 0 42 42" fill="none" xmlns="http://www.w3.org/2000/svg">
<path d="M21 11.8125C21 11.4644 20.8617 11.1306 20.6156 10.8844C20.3694 10.6383 20.0356 10.5 19.6875 10.5C19.3394 10.5 19.0056 10.6383 18.7594 10.8844C18.5133 11.1306 18.375 11.4644 18.375 11.8125V30.1875C18.375 30.5356 18.5133 30.8694 18.7594 31.1156C19.0056 31.3617 19.3394 31.5 19.6875 31.5C20.0356 31.5 20.3694 31.3617 20.6156 31.1156C20.8617 30.8694 21 30.5356 21 30.1875V11.8125ZM6.5625 13.125C6.2144 13.125 5.88056 13.2633 5.63442 13.5094C5.38828 13.7556 5.25 14.0894 5.25 14.4375C5.25 14.7856 5.38828 15.1194 5.63442 15.3656C5.88056 15.6117 6.2144 15.75 6.5625 15.75H14.4375C14.7856 15.75 15.1194 15.6117 15.3656 15.3656C15.6117 15.1194 15.75 14.7856 15.75 14.4375C15.75 14.0894 15.6117 13.7556 15.3656 13.5094C15.1194 13.2633 14.7856 13.125 14.4375 13.125H6.5625ZM6.5625 18.375C6.2144 18.375 5.88056 18.5133 5.63442 18.7594C5.38828 19.0056 5.25 19.3394 5.25 19.6875C5.25 20.0356 5.38828 20.3694 5.63442 20.6156C5.88056 20.8617 6.2144 21 6.5625 21H14.4375C14.7856 21 15.1194 20.8617 15.3656 20.6156C15.6117 20.3694 15.75 20.0356 15.75 19.6875C15.75 19.3394 15.6117 19.0056 15.3656 18.7594C15.1194 18.5133 14.7856 18.375 14.4375 18.375H6.5625ZM6.5625 23.625C6.2144 23.625 5.88056 23.7633 5.63442 24.0094C5.38828 24.2556 5.25 24.5894 5.25 24.9375C5.25 25.2856 5.38828 25.6194 5.63442 25.8656C5.88056 26.1117 6.2144 26.25 6.5625 26.25H14.4375C14.7856 26.25 15.1194 26.1117 15.3656 25.8656C15.6117 25.6194 15.75 25.2856 15.75 24.9375C15.75 24.5894 15.6117 24.2556 15.3656 24.0094C15.1194 23.7633 14.7856 23.625 14.4375 23.625H6.5625Z" fill="#C5528B"/>
<path fill-rule="evenodd" clip-rule="evenodd" d="M0 10.5C0 9.10761 0.553123 7.77226 1.53769 6.78769C2.52226 5.80312 3.85761 5.25 5.25 5.25H36.75C38.1424 5.25 39.4777 5.80312 40.4623 6.78769C41.4469 7.77226 42 9.10761 42 10.5V31.5C42 32.8924 41.4469 34.2277 40.4623 35.2123C39.4777 36.1969 38.1424 36.75 36.75 36.75H5.25C3.85761 36.75 2.52226 36.1969 1.53769 35.2123C0.553123 34.2277 0 32.8924 0 31.5V10.5ZM5.25 7.875C4.55381 7.875 3.88613 8.15156 3.39384 8.64384C2.90156 9.13613 2.625 9.80381 2.625 10.5V31.5C2.625 32.1962 2.90156 32.8639 3.39384 33.3562C3.88613 33.8484 4.55381 34.125 5.25 34.125H36.75C37.4462 34.125 38.1139 33.8484 38.6062 33.3562C39.0984 32.8639 39.375 32.1962 39.375 31.5V10.5C39.375 9.80381 39.0984 9.13613 38.6062 8.64384C38.1139 8.15156 37.4462 7.875 36.75 7.875H5.25Z" fill="#C5528B"/>
<path d="M34.8133 18.0133C34.2189 17.7009 33.5257 17.6339 32.8825 17.8267C32.8511 17.1724 32.5692 16.5554 32.0951 16.1034C31.621 15.6515 30.9912 15.3994 30.3362 15.3994C29.6812 15.3994 29.0514 15.6515 28.5773 16.1034C28.1032 16.5554 27.8213 17.1724 27.79 17.8267C27.1485 17.6335 26.4573 17.694 25.8591 17.9958C25.4187 18.2274 25.0556 18.5827 24.8147 19.0181C24.5737 19.4535 24.4655 19.9499 24.5034 20.4461C24.5412 20.9423 24.7234 21.4165 25.0276 21.8104C25.3317 22.2042 25.7445 22.5005 26.215 22.6625C25.9147 23.0898 25.7519 23.5986 25.7483 24.1208C25.7509 24.2675 25.7645 24.4137 25.7891 24.5583C25.8874 25.1507 26.193 25.6889 26.6514 26.0768C27.1098 26.4647 27.6911 26.677 28.2916 26.6758C28.4159 26.6844 28.5407 26.6844 28.665 26.6758C29.3317 26.5708 29.9307 26.2085 30.3333 25.6667C30.7401 26.1997 31.3385 26.5533 32.0016 26.6525C32.1259 26.661 32.2507 26.661 32.375 26.6525C32.8406 26.652 33.2971 26.5236 33.6947 26.2815C34.0924 26.0394 34.416 25.6927 34.6302 25.2793C34.8444 24.866 34.941 24.4017 34.9095 23.9372C34.8781 23.4727 34.7197 23.0257 34.4516 22.645C34.9244 22.4858 35.3399 22.191 35.6464 21.7973C35.953 21.4037 36.1369 20.9287 36.1755 20.4313C36.214 19.9339 36.1054 19.4361 35.8632 19C35.621 18.5638 35.2559 18.2085 34.8133 17.9783V18.0133ZM29.365 16.8817C29.6256 16.6321 29.9725 16.4928 30.3333 16.4928C30.6941 16.4928 31.041 16.6321 31.3016 16.8817C31.5006 17.0809 31.6357 17.3349 31.6897 17.6113C31.7437 17.8876 31.7142 18.1738 31.605 18.4333L31.4533 18.7775L31.0683 19.1158C30.8316 19.0346 30.5835 18.9913 30.3333 18.9875C30.0099 18.9878 29.6901 19.0554 29.3941 19.1858L29.0675 18.4333C28.9543 18.175 28.9221 17.8883 28.9752 17.6113C29.0283 17.3343 29.1642 17.0798 29.365 16.8817ZM25.8066 20.8717C25.6764 20.5851 25.6479 20.2627 25.7257 19.9577C25.8036 19.6528 25.9832 19.3835 26.2348 19.1944C26.4864 19.0053 26.7951 18.9078 27.1097 18.9179C27.4243 18.928 27.726 19.0452 27.965 19.25L28.2508 19.5008L28.455 19.9675C28.1627 20.3585 28.0033 20.8327 28 21.3208C27.993 21.4082 27.993 21.496 28 21.5833H27.6791L27.1891 21.63C26.9089 21.6596 26.6263 21.6028 26.3792 21.4673C26.1321 21.3317 25.9323 21.1239 25.8066 20.8717ZM29.6566 24.4183C29.5864 24.7297 29.411 25.0074 29.16 25.2046C28.909 25.4019 28.5977 25.5065 28.2785 25.5011C27.9593 25.4956 27.6518 25.3803 27.4077 25.1746C27.1636 24.9689 26.9978 24.6853 26.9383 24.3717C26.9327 24.2901 26.9327 24.2082 26.9383 24.1267C26.9404 23.8896 27.0045 23.6571 27.1242 23.4525C27.244 23.2478 27.4152 23.078 27.6208 22.96L27.9183 22.75L28.4491 22.6917C28.7837 23.1571 29.2779 23.4831 29.8375 23.6075L29.6566 24.4183ZM30.3333 22.4875C30.1026 22.4875 29.877 22.4191 29.6851 22.2909C29.4933 22.1627 29.3437 21.9805 29.2554 21.7673C29.1671 21.5541 29.144 21.3195 29.1891 21.0932C29.2341 20.8669 29.3452 20.659 29.5083 20.4959C29.6715 20.3327 29.8794 20.2216 30.1057 20.1766C30.332 20.1316 30.5666 20.1547 30.7798 20.243C30.9929 20.3313 31.1752 20.4808 31.3033 20.6727C31.4315 20.8645 31.5 21.0901 31.5 21.3208C31.5 21.6303 31.377 21.927 31.1583 22.1458C30.9395 22.3646 30.6427 22.4875 30.3333 22.4875ZM33.7283 24.3658C33.6681 24.7218 33.4705 25.0398 33.1781 25.2515C32.8857 25.4632 32.5219 25.5515 32.165 25.4975C31.8837 25.4579 31.6213 25.3333 31.4128 25.1404C31.2043 24.9476 31.0597 24.6956 30.9983 24.4183L30.9166 24.0683L31.0391 23.5317C31.5773 23.3564 32.0334 22.9915 32.3225 22.505L32.6141 22.68H32.6666L33.0516 22.9075C33.3018 23.0504 33.5013 23.2675 33.6225 23.5288C33.7438 23.7901 33.7807 24.0826 33.7283 24.3658ZM34.86 20.8658C34.7452 21.0977 34.5683 21.2931 34.3488 21.4301C34.1294 21.5671 33.8762 21.6404 33.6175 21.6417H33.4775L33.1041 21.5833L32.6666 21.3442C32.6658 20.777 32.4584 20.2295 32.0833 19.8042L32.3341 19.5883L32.7016 19.25C32.9413 19.0369 33.2476 18.9138 33.568 18.9017C33.8885 18.8896 34.2032 18.9893 34.4582 19.1837C34.7133 19.3781 34.8928 19.6551 34.9661 19.9673C35.0394 20.2795 35.0019 20.6074 34.86 20.895V20.8658Z" fill="#C5528B"/>
</svg>
