<svg width="40" height="41" viewBox="0 0 40 41" fill="none" xmlns="http://www.w3.org/2000/svg">
<g clip-path="url(#clip0_880_7251)">
<path d="M40 20.5C40 9.4543 31.0457 0.5 20 0.5C8.9543 0.5 0 9.4543 0 20.5C0 31.5457 8.9543 40.5 20 40.5C31.0457 40.5 40 31.5457 40 20.5Z" fill="#2FACE6"/>
<mask id="mask0_880_7251" style="mask-type:alpha" maskUnits="userSpaceOnUse" x="8" y="10" width="25" height="21">
<path d="M8.181 10.072H32.181V30.9731H8.181V10.072Z" fill="white"/>
</mask>
<g mask="url(#mask0_880_7251)">
<path fill-rule="evenodd" clip-rule="evenodd" d="M15.938 21.052L26.757 14.388C26.951 14.269 27.151 14.532 26.984 14.687L18.055 22.986C17.742 23.279 17.539 23.669 17.482 24.094L17.178 26.348C17.138 26.649 16.715 26.679 16.632 26.388L15.462 22.277C15.328 21.808 15.523 21.308 15.938 21.052ZM8.604 20.085L14.141 22.152L16.283 29.042C16.42 29.484 16.96 29.647 17.318 29.354L20.404 26.839C20.727 26.575 21.188 26.562 21.526 26.807L27.092 30.848C27.474 31.126 28.017 30.917 28.114 30.454L32.191 10.842C32.296 10.336 31.799 9.914 31.317 10.101L8.599 18.865C8.037 19.081 8.042 19.875 8.604 20.085Z" fill="#FFFFFE"/>
</g>
</g>
<defs>
<clipPath id="clip0_880_7251">
<rect width="40" height="40" fill="white" transform="translate(0 0.5)"/>
</clipPath>
</defs>
</svg>
